<svg width="60" height="60" viewBox="0 0 60 60" fill="none" xmlns="http://www.w3.org/2000/svg">
<g clip-path="url(#clip0_31_341)">
<path d="M56 0H4C1.79086 0 0 1.79086 0 4V56C0 58.2091 1.79086 60 4 60H56C58.2091 60 60 58.2091 60 56V4C60 1.79086 58.2091 0 56 0Z" fill="#0F9EE6" fill-opacity="0.1"/>
<path d="M23.5718 35.1429L26.1432 30H24.8575L22.2861 35.1429H23.5718Z" fill="#0F9EE6"/>
<path d="M21 35.1429L23.5714 30H13.2857C12.5757 30 12 30.5757 12 31.2857V35.1429H21ZM18.4286 31.2857C19.1386 31.2857 19.7143 31.8614 19.7143 32.5714C19.7143 33.2814 19.1386 33.8571 18.4286 33.8571C17.7186 33.8571 17.1429 33.2814 17.1429 32.5714C17.1429 31.8614 17.7186 31.2857 18.4286 31.2857ZM14.5714 31.2857C15.2814 31.2857 15.8571 31.8614 15.8571 32.5714C15.8571 33.2814 15.2814 33.8571 14.5714 33.8571C13.8614 33.8571 13.2857 33.2814 13.2857 32.5714C13.2857 31.8614 13.8614 31.2857 14.5714 31.2857Z" fill="#0F9EE6"/>
<path d="M48.0002 35.1429V31.2857C48.0002 30.5757 47.4245 30 46.7145 30H27.4288L24.8574 35.1429H48.0002Z" fill="#0F9EE6"/>
<path d="M12 36.4285V46.7142C12 47.4242 12.5757 47.9999 13.2857 47.9999H46.7143C47.4243 47.9999 48 47.4242 48 46.7142V36.4285H12Z" fill="#0F9EE6"/>
<path d="M42.8574 22.2857H40.8998C40.764 21.9029 40.6091 21.5286 40.4351 21.1633L41.8187 19.7792C42.3207 19.2769 42.3207 18.463 41.8184 17.9608L38.182 14.3244C37.6801 13.8224 36.8662 13.8224 36.3642 14.3241L34.9798 15.7079C34.6144 15.5337 34.2402 15.3788 33.8574 15.2433V13.2857C33.8574 12.5757 33.2817 12 32.5717 12H27.4288C26.7188 12 26.1431 12.5757 26.1431 13.2857V15.2433C25.7602 15.3791 25.386 15.534 25.0207 15.7079L23.6362 14.3241C23.1343 13.8221 22.3204 13.8224 21.8185 14.3244L18.1814 17.9608C17.6795 18.4627 17.6795 19.2766 18.1814 19.7786L19.5653 21.163C19.3911 21.5287 19.2361 21.9029 19.1007 22.2857H17.1431C16.4331 22.2857 15.8574 22.8614 15.8574 23.5714V28.7143H23.7237L21.2312 26.6371C21.0848 26.5145 21.0002 26.3337 21.0002 26.1429C21.0002 25.952 21.0848 25.7712 21.2312 25.6487L25.0883 22.4344C25.3621 22.2071 25.7671 22.2441 25.9944 22.5168C26.2217 22.79 26.1846 23.1955 25.912 23.4228L22.6475 26.1429L25.7332 28.7143H27.7074L31.3777 22.5971C31.5611 22.292 31.9603 22.1959 32.259 22.3767C32.5641 22.5595 32.6634 22.9544 32.48 23.2586L29.2069 28.7143H34.2674L37.3531 26.1432L34.0885 23.4231C33.8162 23.1958 33.7792 22.7903 34.0062 22.5171C34.2335 22.2447 34.6384 22.2077 34.9122 22.4347L38.7693 25.649C38.9157 25.7715 39.0004 25.9523 39.0004 26.1432C39.0004 26.334 38.9157 26.5148 38.7693 26.6374L36.2765 28.7144H44.1429V23.5715C44.1429 22.8615 43.5672 22.2858 42.8572 22.2858L42.8574 22.2857Z" fill="#0F9EE6"/>
</g>
<defs>
<clipPath id="clip0_31_341">
<rect width="60" height="60" fill="white"/>
</clipPath>
</defs>
</svg>
