<svg width="60" height="60" viewBox="0 0 60 60" fill="none" xmlns="http://www.w3.org/2000/svg">
<g clip-path="url(#clip0_31_304)">
<path d="M56 0H4C1.79086 0 0 1.79086 0 4V56C0 58.2091 1.79086 60 4 60H56C58.2091 60 60 58.2091 60 56V4C60 1.79086 58.2091 0 56 0Z" fill="#0F9EE6" fill-opacity="0.1"/>
<path d="M51.0002 27.1501C50.3065 27.2889 46.0507 27.7516 42.7668 27.2889L41.1016 35.1987C41.1016 35.2449 41.009 35.615 40.9167 35.7537C40.7779 35.8924 38.6965 37.8816 36.7539 39.269C37.494 39.4539 38.1877 39.6391 39.0666 39.7779C43.5534 40.4716 46.375 40.4715 49.2891 39.6852L46.282 33.2557L51.0002 27.1501Z" fill="#0F9EE6"/>
<path d="M36.4758 35.2915L35.6895 38.6219C36.892 37.7895 38.3262 36.5866 39.2974 35.6616C38.696 35.569 37.6783 35.4302 36.4758 35.2915Z" fill="#0F9EE6"/>
<path d="M18.7137 35.1525L16.9559 27.4278C13.7181 27.844 9.64758 27.4278 9 27.2429L13.7181 33.3485L10.6652 39.778C13.5794 40.5181 16.4471 40.5643 20.8876 39.8706C21.7666 39.7318 22.5067 39.5466 23.2004 39.3617C21.2577 37.974 19.1763 35.9388 19.0376 35.8464C19.0373 35.7538 18.7136 35.3376 18.7136 35.1524L18.7137 35.1525Z" fill="#0F9EE6"/>
<path d="M20.4717 35.6159C21.4432 36.5409 22.9693 37.8361 24.2648 38.715L23.432 35.2458C22.183 35.3846 21.1193 35.5233 20.4717 35.6159Z" fill="#0F9EE6"/>
<path d="M36.6607 34.4588C37.7245 34.5976 39.0197 34.6902 40.0837 34.9676C40.1299 34.9215 40.1763 34.875 40.2225 34.875C41.1475 30.5269 42.0725 26.179 42.998 21.7848C35.8748 18.8706 24.0332 18.593 16.4473 21.8309C17.465 26.179 18.4362 30.5732 19.4538 34.9212H19.5464C24.8192 33.3947 31.619 33.9036 36.6609 34.4588H36.6607ZM29.9999 30.3421L26.4381 32.0534L26.947 28.1216L24.218 25.2538L28.1033 24.5137L29.9999 21.0445L31.8964 24.5137L35.7818 25.2538L33.0528 28.1216L33.5617 32.0534L29.9999 30.3421Z" fill="#0F9EE6"/>
</g>
<defs>
<clipPath id="clip0_31_304">
<rect width="60" height="60" fill="white"/>
</clipPath>
</defs>
</svg>
