<svg width="68" height="68" viewBox="0 0 68 68" fill="none" xmlns="http://www.w3.org/2000/svg">
<g filter="url(#filter0_d_231_95)">
<circle cx="34" cy="33" r="25" fill="white"/>
<circle cx="34" cy="33" r="24.7" stroke="#E8E8E8" stroke-width="0.6"/>
</g>
<path d="M29.9591 34.83C29.9591 30.275 34.4054 26.5701 39.8709 26.5701C40.8318 26.5701 41.7609 26.6869 42.6408 26.9006C40.6732 23.4173 36.3783 21 31.3945 21C24.5487 21 19 25.5564 19 31.1774C19 34.107 20.5092 36.7454 22.9227 38.6027C22.9204 38.6719 22.9143 38.7399 22.9143 38.8101C22.9143 41.0498 22.031 43.1187 20.538 44.799C20.4174 44.9353 20.4634 45.0225 20.6455 44.9949C23.7774 44.5129 26.4931 43.0624 28.3168 41.0381C29.3008 41.2442 30.3318 41.3546 31.3941 41.3546C32.1342 41.3546 32.8584 41.2977 33.563 41.1964C31.3629 39.6799 29.9585 37.3892 29.9585 34.8303L29.9591 34.83Z" fill="#0F9EE6"/>
<path d="M46.1169 40.4509C46.1169 40.4002 46.1122 40.3496 46.1101 40.2986C47.8884 38.9309 49.0003 36.9875 49.0003 34.8295C49.0003 30.6898 44.9129 27.334 39.8712 27.334C34.829 27.334 30.7422 30.6899 30.7422 34.8295C30.7422 38.9691 34.829 42.325 39.8712 42.325C40.6537 42.325 41.4128 42.2443 42.1377 42.092C43.464 43.5647 45.431 44.6248 47.7011 44.9929C47.8827 45.0228 47.9296 44.9344 47.8103 44.7975C46.7454 43.5714 46.1167 42.0718 46.1167 40.451L46.1169 40.4509ZM35.489 36.0158C34.8166 36.0158 34.2721 35.4847 34.2721 34.8295C34.2721 34.1734 34.8173 33.6429 35.489 33.6429C36.1615 33.6429 36.7065 34.1736 36.7065 34.8295C36.7065 35.4847 36.1612 36.0158 35.489 36.0158ZM39.8714 36.0158C39.1988 36.0158 38.6538 35.4847 38.6538 34.8295C38.6538 34.1734 39.1997 33.6429 39.8714 33.6429C40.5431 33.6429 41.0881 34.1736 41.0881 34.8295C41.0884 35.4847 40.5438 36.0158 39.8714 36.0158ZM44.2533 36.0158C43.5809 36.0158 43.0364 35.4847 43.0364 34.8295C43.0364 34.1734 43.5816 33.6429 44.2533 33.6429C44.9258 33.6429 45.47 34.1736 45.47 34.8295C45.47 35.4847 44.9253 36.0158 44.2533 36.0158Z" fill="#0F9EE6"/>
<defs>
<filter id="filter0_d_231_95" x="0" y="0" width="68" height="68" filterUnits="userSpaceOnUse" color-interpolation-filters="sRGB">
<feFlood flood-opacity="0" result="BackgroundImageFix"/>
<feColorMatrix in="SourceAlpha" type="matrix" values="0 0 0 0 0 0 0 0 0 0 0 0 0 0 0 0 0 0 127 0" result="hardAlpha"/>
<feOffset dy="1"/>
<feGaussianBlur stdDeviation="4.5"/>
<feComposite in2="hardAlpha" operator="out"/>
<feColorMatrix type="matrix" values="0 0 0 0 0.0588235 0 0 0 0 0.619608 0 0 0 0 0.901961 0 0 0 0.17 0"/>
<feBlend mode="normal" in2="BackgroundImageFix" result="effect1_dropShadow_231_95"/>
<feBlend mode="normal" in="SourceGraphic" in2="effect1_dropShadow_231_95" result="shape"/>
</filter>
</defs>
</svg>
