<svg width="60" height="60" viewBox="0 0 60 60" fill="none" xmlns="http://www.w3.org/2000/svg">
<g clip-path="url(#clip0_31_314)">
<path d="M56 0H4C1.79086 0 0 1.79086 0 4V56C0 58.2091 1.79086 60 4 60H56C58.2091 60 60 58.2091 60 56V4C60 1.79086 58.2091 0 56 0Z" fill="#0F9EE6" fill-opacity="0.1"/>
<path d="M44.2038 12H15.7969C14.7904 12.0015 13.8253 12.402 13.1137 13.1137C12.402 13.8253 12.0015 14.7904 12 15.7969V36.8905C12.0015 37.897 12.402 38.8621 13.1137 39.5737C13.8253 40.2854 14.7904 40.686 15.7969 40.6874H24.257C23.8903 41.996 23.1493 43.1692 22.125 44.0625H21.4218C20.8623 44.0625 20.3259 44.2847 19.9302 44.6802C19.5347 45.076 19.3124 45.6124 19.3124 46.1719V46.7344C19.3129 47.0699 19.4465 47.3916 19.6836 47.6288C19.9209 47.8659 20.2426 47.9995 20.5781 48H39.4217C39.7572 47.9995 40.0789 47.8659 40.3162 47.6288C40.5532 47.3915 40.6868 47.0699 40.6873 46.7344V46.1719C40.6873 45.6124 40.4651 45.076 40.0696 44.6802C39.6738 44.2847 39.1374 44.0625 38.5779 44.0625H37.8803C36.8562 43.1692 36.1152 41.996 35.7486 40.6874H44.2029C45.2093 40.6859 46.1744 40.2854 46.8861 39.5737C47.5977 38.8621 47.9983 37.897 47.9998 36.8905V15.7969C47.9983 14.7904 47.5977 13.8253 46.8861 13.1137C46.1744 12.402 45.2093 12.0015 44.2029 12H44.2038ZM30.0003 38.4378C29.7728 38.4378 29.5676 38.3007 29.4808 38.0905C29.3936 37.8803 29.4416 37.6385 29.6026 37.4775C29.7635 37.3165 30.0053 37.2686 30.2155 37.3557C30.4257 37.4426 30.5628 37.6478 30.5628 37.8753C30.5618 38.1857 30.3107 38.4368 30.0003 38.4378ZM34.5004 35.0628H12.8436V15.7968C12.8446 15.0137 13.156 14.2632 13.7094 13.7094C14.2632 13.156 15.0137 12.8446 15.7968 12.8436H34.5003L34.5004 35.0628ZM40.1395 20.8593L41.5177 16.9218C41.5953 16.7013 41.8371 16.5853 42.0576 16.6631C42.2783 16.7407 42.3941 16.9825 42.3165 17.203L40.9383 21.1406C40.8607 21.361 40.6189 21.4771 40.3982 21.3992C40.1777 21.3216 40.0619 21.0798 40.1395 20.8593ZM37.0063 18.7753L38.5055 16.8065C38.6469 16.6209 38.9118 16.585 39.0974 16.7264C39.2832 16.8675 39.3189 17.1327 39.1777 17.3183L37.8727 19.0312L39.1777 20.7441C39.3189 20.9297 39.2832 21.1949 39.0974 21.336C38.9118 21.4774 38.6469 21.4415 38.5055 21.2559L37.0063 19.2871C36.8911 19.1359 36.8911 18.9265 37.0063 18.7753ZM44.7663 33.3754H37.7347C37.5017 33.3754 37.3128 33.1865 37.3128 32.9535C37.3128 32.7204 37.5017 32.5316 37.7347 32.5316H44.7663C44.9994 32.5316 45.1882 32.7204 45.1882 32.9535C45.1882 33.1865 44.9994 33.3754 44.7663 33.3754ZM44.7663 30.5628H37.7347C37.5017 30.5628 37.3128 30.374 37.3128 30.141C37.3128 29.9079 37.5017 29.7191 37.7347 29.7191H44.7663C44.9994 29.7191 45.1882 29.9079 45.1882 30.141C45.1882 30.374 44.9994 30.5628 44.7663 30.5628ZM44.7663 27.7503H37.7347C37.5017 27.7503 37.3128 27.5615 37.3128 27.3284C37.3128 27.0954 37.5017 26.9065 37.7347 26.9065H44.7663C44.9994 26.9065 45.1882 27.0954 45.1882 27.3284C45.1882 27.5615 44.9994 27.7503 44.7663 27.7503ZM44.7663 24.9378H37.7347C37.5017 24.9378 37.3128 24.7489 37.3128 24.5159C37.3128 24.2829 37.5017 24.094 37.7347 24.094H44.7663C44.9994 24.094 45.1882 24.2829 45.1882 24.5159C45.1882 24.7489 44.9994 24.9378 44.7663 24.9378ZM45.4948 19.2873L43.9902 21.2561C43.9246 21.3515 43.8229 21.4156 43.7086 21.4339C43.5946 21.452 43.4779 21.4226 43.3862 21.3523C43.2943 21.2822 43.2353 21.1772 43.223 21.0622C43.2107 20.9475 43.2458 20.8325 43.3207 20.7443L44.6285 19.0314L43.3207 17.3185C43.2458 17.2303 43.2107 17.1153 43.223 17.0006C43.2353 16.8856 43.2943 16.7806 43.3862 16.7105C43.4779 16.6402 43.5946 16.6108 43.7086 16.6289C43.8229 16.6473 43.9246 16.7113 43.9902 16.8067L45.4948 18.7755C45.6101 18.9267 45.6101 19.1361 45.4948 19.2873Z" fill="#0F9EE6"/>
<path d="M15.5156 14.5312H31.8283C32.5274 14.5312 33.094 15.2304 33.094 15.7969V23.6721C33.094 24.3712 32.5275 24.9377 31.8283 24.9377H15.5156C14.8165 24.9377 14.25 24.2387 14.25 23.6721V15.7969C14.25 15.0978 14.8165 14.5312 15.5156 14.5312Z" fill="#0F9EE6"/>
<path d="M15.5156 26.3435H21.7032C22.4023 26.3435 22.9689 27.0426 22.9689 27.6092V32.1092C22.9689 32.8083 22.4024 33.3749 21.7032 33.3749H15.5156C14.8165 33.3749 14.25 32.6758 14.25 32.1092V27.6092C14.25 26.9101 14.8165 26.3435 15.5156 26.3435Z" fill="#0F9EE6"/>
<path d="M25.6417 26.3435H31.8292C32.5283 26.3435 33.0949 27.0426 33.0949 27.6092V32.1092C33.0949 32.8083 32.5284 33.3749 31.8292 33.3749H25.6417C24.9425 33.3749 24.376 32.6758 24.376 32.1092V27.6092C24.376 26.9101 24.9425 26.3435 25.6417 26.3435Z" fill="#0F9EE6"/>
</g>
<defs>
<clipPath id="clip0_31_314">
<rect width="60" height="60" fill="white"/>
</clipPath>
</defs>
</svg>
