<svg width="60" height="60" viewBox="0 0 60 60" fill="none" xmlns="http://www.w3.org/2000/svg">
<g clip-path="url(#clip0_31_290)">
<path d="M56 0H4C1.79086 0 0 1.79086 0 4V56C0 58.2091 1.79086 60 4 60H56C58.2091 60 60 58.2091 60 56V4C60 1.79086 58.2091 0 56 0Z" fill="#0F9EE6" fill-opacity="0.1"/>
<path d="M18 40.6448H42V18.1929H18V40.6448ZM35.4192 37.548H24.5808C24.367 37.548 24.1937 37.3747 24.1937 37.1609C24.1937 36.9472 24.367 36.7738 24.5808 36.7738H35.4192C35.6329 36.7738 35.8063 36.9472 35.8063 37.1609C35.8063 37.3747 35.633 37.548 35.4192 37.548ZM35.4192 33.677H24.5808C24.367 33.677 24.1937 33.5036 24.1937 33.2899C24.1937 33.0762 24.367 32.9028 24.5808 32.9028H35.4192C35.6329 32.9028 35.8063 33.0762 35.8063 33.2899C35.8063 33.5036 35.633 33.677 35.4192 33.677ZM24.5808 21.2898H35.4192C35.6329 21.2898 35.8063 21.4632 35.8063 21.6769C35.8063 21.8907 35.633 22.064 35.4192 22.064H24.5808C24.367 22.064 24.1937 21.8907 24.1937 21.6769C24.1937 21.4632 24.367 21.2898 24.5808 21.2898ZM22.2582 25.1608H37.7422C37.9559 25.1608 38.1293 25.3342 38.1293 25.5479C38.1293 25.7617 37.9559 25.935 37.7422 25.935H22.2582C22.0445 25.935 21.8711 25.7617 21.8711 25.5479C21.8711 25.3342 22.0445 25.1608 22.2582 25.1608ZM22.2582 29.0319H37.7422C37.9559 29.0319 38.1293 29.2052 38.1293 29.419C38.1293 29.6327 37.9559 29.8061 37.7422 29.8061H22.2582C22.0445 29.8061 21.8711 29.6327 21.8711 29.419C21.8711 29.2052 22.0445 29.0319 22.2582 29.0319Z" fill="#0F9EE6"/>
<path d="M40.1419 12H19.8581C18.8333 12 18 12.8333 18 13.8581V17.4194H42V13.8581C42 12.8333 41.1664 12 40.1419 12ZM30 16.2581C29.1448 16.2581 28.4516 15.5649 28.4516 14.7097C28.4516 13.8545 29.1448 13.1613 30 13.1613C30.8552 13.1613 31.5484 13.8545 31.5484 14.7097C31.5484 15.5649 30.8552 16.2581 30 16.2581Z" fill="#0F9EE6"/>
<path d="M18 44.9805C18 46.0049 18.8333 46.8385 19.8581 46.8385H40.1419C41.1664 46.8385 42 46.0049 42 44.9805V41.4192H18V44.9805ZM30 42.5805C30.8552 42.5805 31.5484 43.2737 31.5484 44.1289C31.5484 44.9841 30.8552 45.6773 30 45.6773C29.1448 45.6773 28.4516 44.9841 28.4516 44.1289C28.4516 43.2737 29.1448 42.5805 30 42.5805Z" fill="#0F9EE6"/>
</g>
<defs>
<clipPath id="clip0_31_290">
<rect width="60" height="60" fill="white"/>
</clipPath>
</defs>
</svg>
