<svg width="60" height="60" viewBox="0 0 60 60" fill="none" xmlns="http://www.w3.org/2000/svg">
<g clip-path="url(#clip0_31_335)">
<path d="M56 0H4C1.79086 0 0 1.79086 0 4V56C0 58.2091 1.79086 60 4 60H56C58.2091 60 60 58.2091 60 56V4C60 1.79086 58.2091 0 56 0Z" fill="#0F9EE6" fill-opacity="0.1"/>
<path d="M29.9997 12C25.2258 12 20.6475 13.8964 17.2719 17.2722C13.8964 20.6477 12 25.2262 12 30C12 34.7738 13.8964 39.3522 17.2722 42.7278C20.6477 46.1036 25.2262 48 30 48C34.7738 48 39.3522 46.1036 42.7278 42.7278C46.1036 39.3523 48 34.7738 48 30C48 26.8405 47.1683 23.7364 45.5885 21.0001C44.0085 18.2637 41.7364 15.9913 38.9999 14.4115C36.2634 12.8316 33.1595 12 30 12H29.9997ZM29.9997 18.6477C33.3152 18.6477 34.6109 21.1473 34.6109 24.2308C34.6109 27.3142 32.5465 29.8138 29.9997 29.8138C27.4532 29.8138 25.3886 27.3142 25.3886 24.2308C25.3886 21.1476 26.8367 18.6477 29.9997 18.6477ZM38.3742 38.4643C38.3742 40.0586 34.6248 41.3511 29.9997 41.3511C25.3747 41.3511 21.6253 40.0586 21.6253 38.4643C21.6253 38.4565 21.6268 38.4487 21.6271 38.441C21.5816 37.7532 21.3503 32.9057 23.7387 31.7199L23.7385 31.7202C24.8506 31.1542 26.0394 30.7534 27.2674 30.5306C27.4467 30.4985 27.631 30.5455 27.7731 30.6595L29.6047 32.1159C29.836 32.2997 30.1635 32.2997 30.3948 32.1159L32.2264 30.6595C32.3685 30.5455 32.5528 30.4985 32.7321 30.5306C33.9601 30.7534 35.1489 31.1542 36.2611 31.7202C38.6494 32.9055 38.4179 37.7532 38.3727 38.4412C38.3727 38.449 38.3742 38.4565 38.3742 38.4646V38.4643Z" fill="#0F9EE6"/>
</g>
<defs>
<clipPath id="clip0_31_335">
<rect width="60" height="60" fill="white"/>
</clipPath>
</defs>
</svg>
