<svg width="60" height="60" viewBox="0 0 60 60" fill="none" xmlns="http://www.w3.org/2000/svg">
<g clip-path="url(#clip0_31_329)">
<path d="M56 0H4C1.79086 0 0 1.79086 0 4V56C0 58.2091 1.79086 60 4 60H56C58.2091 60 60 58.2091 60 56V4C60 1.79086 58.2091 0 56 0Z" fill="#0F9EE6" fill-opacity="0.1"/>
<path fill-rule="evenodd" clip-rule="evenodd" d="M24.7061 12H35.2939V22.5885H24.7061V12ZM24.7061 37.4115H35.2939V48H24.7061V37.4115ZM24.7061 24.7061H35.2939V35.2939H24.7061V24.7061ZM48 24.7061V35.2939H37.4115V24.7061H48ZM22.5885 24.7061V35.2939H12V24.7061H22.5885ZM37.4121 12H45.8811C47.0508 12 48.0006 12.9522 48.0006 14.1194V22.5884H37.4121V12ZM22.5885 12V22.5885H12V14.1195C12 12.9523 12.9497 12.0001 14.1194 12.0001L22.5885 12ZM22.5885 48H14.1195C12.9498 48 12.0001 47.0478 12.0001 45.8806V37.4116H22.5886L22.5885 48ZM37.4121 48V37.4115H48.0006V45.8805C48.0006 47.0477 47.051 47.9999 45.8812 47.9999L37.4121 48Z" fill="#0F9EE6"/>
</g>
<defs>
<clipPath id="clip0_31_329">
<rect width="60" height="60" fill="white"/>
</clipPath>
</defs>
</svg>
