<svg width="60" height="60" viewBox="0 0 60 60" fill="none" xmlns="http://www.w3.org/2000/svg">
<g clip-path="url(#clip0_31_298)">
<path d="M56 0H4C1.79086 0 0 1.79086 0 4V56C0 58.2091 1.79086 60 4 60H56C58.2091 60 60 58.2091 60 56V4C60 1.79086 58.2091 0 56 0Z" fill="#0F9EE6" fill-opacity="0.1"/>
<path d="M45.3194 16.5H14.6803C13.9699 16.5008 13.2886 16.7835 12.786 17.286C12.2835 17.7882 12.0009 18.4696 12 19.18V21.8795H47.9999V19.18C47.999 18.4696 47.7164 17.7883 47.2139 17.286C46.7113 16.7835 46.03 16.5009 45.3196 16.5H45.3194ZM14.6896 19.808C14.4384 19.808 14.2122 19.6568 14.1159 19.4249C14.0199 19.193 14.0729 18.926 14.2507 18.7483C14.4281 18.5708 14.6951 18.5178 14.927 18.6138C15.1589 18.7101 15.3101 18.9363 15.3101 19.1874C15.3104 19.3521 15.2451 19.51 15.1287 19.6263C15.0121 19.743 14.8542 19.8083 14.6896 19.808ZM17.9998 19.808C17.658 19.8069 17.3812 19.5293 17.3812 19.1875C17.3812 18.8454 17.658 18.5678 17.9998 18.5666C18.3416 18.5678 18.6184 18.8454 18.6184 19.1875C18.6184 19.5293 18.3416 19.8069 17.9998 19.808ZM21.3101 19.808C21.0593 19.808 20.8327 19.6568 20.7367 19.4249C20.6407 19.193 20.6938 18.926 20.8712 18.7483C21.0487 18.5708 21.3157 18.5178 21.5478 18.6138C21.7797 18.7101 21.9309 18.9363 21.9309 19.1874C21.9312 19.3521 21.8659 19.51 21.7493 19.6263C21.6329 19.743 21.475 19.8083 21.3101 19.808ZM12.0001 23.1208H48V39.8514C47.9992 40.5618 47.7165 41.2431 47.214 41.7454C46.7115 42.2479 46.0302 42.5305 45.3197 42.5314H14.6806C13.9702 42.5306 13.2889 42.2479 12.7863 41.7454C12.2838 41.2432 12.0011 40.5618 12.0003 39.8514L12.0001 23.1208Z" fill="#0F9EE6"/>
</g>
<defs>
<clipPath id="clip0_31_298">
<rect width="60" height="60" fill="white"/>
</clipPath>
</defs>
</svg>
