<svg width="60" height="60" viewBox="0 0 60 60" fill="none" xmlns="http://www.w3.org/2000/svg">
<g clip-path="url(#clip0_31_323)">
<path d="M56 0H4C1.79086 0 0 1.79086 0 4V56C0 58.2091 1.79086 60 4 60H56C58.2091 60 60 58.2091 60 56V4C60 1.79086 58.2091 0 56 0Z" fill="#0F9EE6" fill-opacity="0.1"/>
<path fill-rule="evenodd" clip-rule="evenodd" d="M16.8731 12H29.7651C32.4447 12 34.6368 14.192 34.6368 16.8717V43.1283C34.6368 45.8079 32.4448 48 29.7651 48H16.8731C14.1935 48 12 45.808 12 43.1283V16.8717C12 14.1921 14.1932 12 16.8731 12ZM21.3977 45.3974C20.8896 45.3974 20.4788 44.9855 20.4788 44.4775C20.4788 43.9695 20.8907 43.5576 21.3977 43.5576H25.2389C25.7469 43.5576 26.1577 43.9695 26.1577 44.4775C26.1577 44.9855 25.7458 45.3974 25.2389 45.3974H21.3977ZM35.1075 17.4343L45.2977 23.3176C45.5907 23.4868 45.7554 23.7957 45.7554 24.1115H45.758V35.8896C45.758 36.2535 45.5465 36.5683 45.2402 36.7171L35.0979 42.5738C34.7999 42.7467 34.4444 42.7325 34.1682 42.5677L23.978 36.6844C23.685 36.5152 23.5203 36.2063 23.5203 35.8905H23.5178V24.1124C23.5178 23.7485 23.7292 23.4337 24.0355 23.2849L34.1778 17.4282C34.4758 17.2553 34.8313 17.2696 35.1075 17.4343ZM42.1331 17.5966C42.0021 18.0867 41.4988 18.3775 41.0087 18.2465C40.5185 18.1155 40.2278 17.6122 40.3588 17.1221L41.2572 13.7696C41.3882 13.2795 41.8914 12.9887 42.3816 13.1197C42.8717 13.2507 43.1625 13.754 43.0315 14.2441L42.1331 17.5977V17.5966ZM46.1725 21.1038C45.7522 21.3872 45.1817 21.2766 44.8982 20.8563C44.6147 20.436 44.7253 19.8643 45.1456 19.5809L48.2867 17.4609C48.707 17.1774 49.2787 17.288 49.5622 17.7083C49.8456 18.1286 49.735 18.7003 49.3147 18.9827L46.1737 21.1038H46.1725ZM26.2712 24.1113L34.6397 28.9422L43.0053 24.1124L34.6368 19.2814L26.2712 24.1124V24.1113ZM43.919 25.6993L35.1473 30.7631C34.8663 30.9505 34.4915 30.9745 34.1779 30.7944L25.3568 25.7015V35.3619L34.639 40.7201L43.9205 35.3619V25.7001L43.919 25.6993Z" fill="#0F9EE6"/>
</g>
<defs>
<clipPath id="clip0_31_323">
<rect width="60" height="60" fill="white"/>
</clipPath>
</defs>
</svg>
